<?xml version="1.0" encoding="UTF-8" standalone="no"?>
<!-- Generator: Adobe Illustrator 17.0.0, SVG Export Plug-In . SVG Version: 6.00 Build 0)  -->

<svg
   xmlns:dc="http://purl.org/dc/elements/1.1/"
   xmlns:cc="http://creativecommons.org/ns#"
   xmlns:rdf="http://www.w3.org/1999/02/22-rdf-syntax-ns#"
   xmlns:svg="http://www.w3.org/2000/svg"
   xmlns="http://www.w3.org/2000/svg"
   xmlns:sodipodi="http://sodipodi.sourceforge.net/DTD/sodipodi-0.dtd"
   xmlns:inkscape="http://www.inkscape.org/namespaces/inkscape"
   height="512"
   width="512"
   version="1.1"
   id="_x30_53_x5F_test"
   x="0px"
   y="0px"
   viewBox="0 0 66 66"
   style="enable-background:new 0 0 66 66;"
   xml:space="preserve"
   sodipodi:docname="icon.svg"
   inkscape:version="0.92.2 (5c3e80d, 2017-08-06)"><metadata
     id="metadata87"><rdf:RDF><cc:Work
         rdf:about=""><dc:format>image/svg+xml</dc:format><dc:type
           rdf:resource="http://purl.org/dc/dcmitype/StillImage" /></cc:Work></rdf:RDF></metadata><defs
     id="defs85" /><sodipodi:namedview
     pagecolor="#ffffff"
     bordercolor="#666666"
     borderopacity="1"
     objecttolerance="10"
     gridtolerance="10"
     guidetolerance="10"
     inkscape:pageopacity="0"
     inkscape:pageshadow="2"
     inkscape:window-width="1336"
     inkscape:window-height="855"
     id="namedview83"
     showgrid="false"
     inkscape:zoom="0.4609375"
     inkscape:cx="256"
     inkscape:cy="256"
     inkscape:window-x="0"
     inkscape:window-y="27"
     inkscape:window-maximized="0"
     inkscape:current-layer="_x30_53_x5F_test" /><g
     id="g80"
     transform="matrix(0.95767648,0,0,0.95767648,1.3977023,1.6747086)"><rect
       x="45"
       y="57"
       style="fill:#ff4a63"
       width="16"
       height="8"
       id="rect2" /><circle
       style="fill:#ff4a63"
       cx="45"
       cy="61"
       r="4"
       id="circle4" /><circle
       style="fill:#ff4a63"
       cx="61"
       cy="61"
       r="4"
       id="circle6" /><rect
       x="41"
       y="57"
       style="fill:#ff4a63"
       width="24"
       height="4"
       id="rect8" /><path
       style="fill:#f9e765"
       d="M 25,53 C 25,59.627 19.627,65 13,65 6.373,65 1,59.627 1,53"
       id="path10"
       inkscape:connector-curvature="0" /><circle
       style="fill:#35c9cb"
       cx="33"
       cy="61"
       r="4"
       id="circle12" /><rect
       x="9"
       y="17"
       style="fill:#ff4a63"
       width="8"
       height="4"
       id="rect14" /><rect
       x="49"
       y="21"
       style="fill:#ff4a63"
       width="8"
       height="4"
       id="rect16" /><polygon
       style="fill:#35c9cb"
       points="37,61 37,33 29,33 29,60.99 "
       id="polygon18" /><path
       style="fill:none;stroke:#020210;stroke-width:2;stroke-linecap:round;stroke-linejoin:round;stroke-miterlimit:10"
       d="m 29,13 v 48 c 0,2.209 1.791,4 4,4 2.209,0 4,-1.791 4,-4 V 13 Z"
       id="path20"
       inkscape:connector-curvature="0" /><path
       style="fill:none;stroke:#020210;stroke-width:2;stroke-linecap:round;stroke-linejoin:round;stroke-miterlimit:10"
       d="M 17,41.697 V 25 H 9 V 41.697 C 4.342,43.347 1,47.777 1,53 c 0,6.627 5.373,12 12,12 6.627,0 12,-5.373 12,-12 0,-5.223 -3.342,-9.653 -8,-11.303 z"
       id="path22"
       inkscape:connector-curvature="0" /><line
       style="fill:none;stroke:#020210;stroke-width:2;stroke-linecap:round;stroke-linejoin:round;stroke-miterlimit:10"
       x1="1"
       y1="53"
       x2="25"
       y2="53"
       id="line24" /><line
       style="fill:none;stroke:#020210;stroke-width:2;stroke-linecap:round;stroke-linejoin:round;stroke-miterlimit:10"
       x1="49"
       y1="45"
       x2="57"
       y2="45"
       id="line26" /><line
       style="fill:none;stroke:#020210;stroke-width:2;stroke-linecap:round;stroke-linejoin:round;stroke-miterlimit:10"
       x1="53"
       y1="21"
       x2="53"
       y2="13"
       id="line28" /><path
       style="fill:none;stroke:#020210;stroke-width:2;stroke-linecap:round;stroke-linejoin:round;stroke-miterlimit:10"
       d="m 45,13 c 0,-2.209 1.791,-4 4,-4 2.209,0 4,1.791 4,4"
       id="path30"
       inkscape:connector-curvature="0" /><line
       style="fill:none;stroke:#020210;stroke-width:2;stroke-linecap:round;stroke-linejoin:round;stroke-miterlimit:10"
       x1="45"
       y1="13"
       x2="45"
       y2="43"
       id="line32" /><path
       style="fill:none;stroke:#020210;stroke-width:2;stroke-linecap:round;stroke-linejoin:round;stroke-miterlimit:10"
       d="m 45,43 c 0,1.104 -0.896,2 -2,2 -1.105,0 -2,-0.896 -2,-2"
       id="path34"
       inkscape:connector-curvature="0" /><line
       style="fill:none;stroke:#020210;stroke-width:2;stroke-linecap:round;stroke-linejoin:round;stroke-miterlimit:10"
       x1="41"
       y1="43"
       x2="41"
       y2="5"
       id="line36" /><path
       style="fill:none;stroke:#020210;stroke-width:2;stroke-linecap:round;stroke-linejoin:round;stroke-miterlimit:10"
       d="m 33,5 c 0,-2.209 1.791,-4 4,-4 2.209,0 4,1.791 4,4"
       id="path38"
       inkscape:connector-curvature="0" /><line
       style="fill:none;stroke:#020210;stroke-width:2;stroke-linecap:round;stroke-linejoin:round;stroke-miterlimit:10"
       x1="33"
       y1="5"
       x2="33"
       y2="57"
       id="line40" /><line
       style="fill:none;stroke:#020210;stroke-width:2;stroke-linecap:round;stroke-linejoin:round;stroke-miterlimit:10"
       x1="13"
       y1="61"
       x2="13"
       y2="21"
       id="line42" /><line
       style="fill:none;stroke:#020210;stroke-width:2;stroke-linecap:round;stroke-linejoin:round;stroke-miterlimit:10"
       x1="9"
       y1="21"
       x2="17"
       y2="21"
       id="line44" /><line
       style="fill:none;stroke:#020210;stroke-width:2;stroke-linecap:round;stroke-linejoin:round;stroke-miterlimit:10"
       x1="21"
       y1="35"
       x2="21"
       y2="13"
       id="line46" /><line
       style="fill:none;stroke:#020210;stroke-width:2;stroke-linecap:round;stroke-linejoin:round;stroke-miterlimit:10"
       x1="17"
       y1="21"
       x2="17"
       y2="17"
       id="line48" /><line
       style="fill:none;stroke:#020210;stroke-width:2;stroke-linecap:round;stroke-linejoin:round;stroke-miterlimit:10"
       x1="17"
       y1="17"
       x2="9"
       y2="17"
       id="line50" /><line
       style="fill:none;stroke:#020210;stroke-width:2;stroke-linecap:round;stroke-linejoin:round;stroke-miterlimit:10"
       x1="9"
       y1="17"
       x2="9"
       y2="21"
       id="line52" /><line
       style="fill:none;stroke:#020210;stroke-width:2;stroke-linecap:round;stroke-linejoin:round;stroke-miterlimit:10"
       x1="13"
       y1="17"
       x2="13"
       y2="13"
       id="line54" /><path
       style="fill:none;stroke:#020210;stroke-width:2;stroke-linecap:round;stroke-linejoin:round;stroke-miterlimit:10"
       d="m 13,13 c 0,-2.209 1.791,-4 4,-4 2.209,0 4,1.791 4,4"
       id="path56"
       inkscape:connector-curvature="0" /><line
       style="fill:none;stroke:#020210;stroke-width:2;stroke-linecap:round;stroke-linejoin:round;stroke-miterlimit:10"
       x1="29"
       y1="33"
       x2="37"
       y2="33"
       id="line58" /><path
       style="fill:none;stroke:#020210;stroke-width:2;stroke-linecap:round;stroke-linejoin:round;stroke-miterlimit:10"
       d="m 25,35 c 0,1.104 -0.896,2 -2,2 -1.105,0 -2,-0.896 -2,-2"
       id="path60"
       inkscape:connector-curvature="0" /><line
       style="fill:none;stroke:#020210;stroke-width:2;stroke-linecap:round;stroke-linejoin:round;stroke-miterlimit:10"
       x1="25"
       y1="35"
       x2="25"
       y2="9"
       id="line62" /><path
       style="fill:none;stroke:#020210;stroke-width:2;stroke-linecap:round;stroke-linejoin:round;stroke-miterlimit:10"
       d="m 25,9 c 0,-2.209 1.791,-4 4,-4 2.209,0 4,1.791 4,4"
       id="path64"
       inkscape:connector-curvature="0" /><line
       style="fill:none;stroke:#020210;stroke-width:2;stroke-linecap:round;stroke-linejoin:round;stroke-miterlimit:10"
       x1="53"
       y1="25"
       x2="53"
       y2="61"
       id="line66" /><rect
       x="49"
       y="21"
       style="fill:none;stroke:#020210;stroke-width:2;stroke-linecap:round;stroke-linejoin:round;stroke-miterlimit:10"
       width="8"
       height="4"
       id="rect68" /><path
       style="fill:none;stroke:#020210;stroke-width:2;stroke-linecap:round;stroke-linejoin:round;stroke-miterlimit:10"
       d="M 57,45 V 29 h -8 v 16 l -8,12 v 4 c 0,2.209 1.791,4 4,4 h 16 c 2.209,0 4,-1.791 4,-4 v -4 z"
       id="path70"
       inkscape:connector-curvature="0" /><line
       style="fill:none;stroke:#020210;stroke-width:2;stroke-linecap:round;stroke-linejoin:round;stroke-miterlimit:10"
       x1="41"
       y1="57"
       x2="45"
       y2="57"
       id="line72" /><line
       style="fill:none;stroke:#020210;stroke-width:2;stroke-linecap:round;stroke-linejoin:round;stroke-miterlimit:10"
       x1="49"
       y1="57"
       x2="53"
       y2="57"
       id="line74" /><line
       style="fill:none;stroke:#020210;stroke-width:2;stroke-linecap:round;stroke-linejoin:round;stroke-miterlimit:10"
       x1="57"
       y1="57"
       x2="65"
       y2="57"
       id="line76" /><path
       style="fill:none;stroke:#020210;stroke-width:2;stroke-linecap:round;stroke-linejoin:round;stroke-miterlimit:10"
       d="m 7.343,58.656 c -3.124,-3.123 -3.124,-8.189 0,-11.312"
       id="path78"
       inkscape:connector-curvature="0" /></g></svg>